<?xml version="1.0" encoding="UTF-8" standalone="no"?><!DOCTYPE svg PUBLIC "-//W3C//DTD SVG 1.1//EN" "http://www.w3.org/Graphics/SVG/1.1/DTD/svg11.dtd"><svg xmlns="http://www.w3.org/2000/svg" xmlns:xlink="http://www.w3.org/1999/xlink" version="1.1" width="1024" height="1024" viewBox="0 0 1024 1024">
<desc>Created with SVGMaker Editor 3.2.3</desc>
<defs>
</defs>
<path style="fill: rgb(214,32,38)" stroke-linecap="round" d="M511.1603 242.7041C516.4834 242.708 521.8075 242.8486 527.125 243.1026 531.3432 243.1559 531.3432 243.1559 535.6466 243.2103 543.0841 243.3268 550.5031 243.5517 557.9354 243.8307 565.5339 244.0889 573.1342 244.2026 580.7356 244.3289 595.6184 244.6054 610.4925 245.0252 625.3688 245.5553 632.0653 262.0952 638.6356 278.6721 644.923 295.3839 645.6735 297.3741 646.4241 299.3644 647.1974 301.415 648.7636 305.5715 650.3283 309.7285 651.8914 313.8862 654.2665 320.1999 656.65 326.51 659.034 332.82 660.568 336.8941 662.1015 340.9685 663.6345 345.043 664.3363 346.8987 665.0381 348.7543 665.7612 350.6661 670.2743 362.6996 674.3735 374.8263 678.2012 387.1124 660.83 395.2683 643.2582 402.8998 625.6424 410.4654 622.2354 411.9316 618.8309 413.404 615.4289 414.8824 610.4611 417.0408 605.486 419.1801 600.509 421.3155 599.0022 421.9743 597.4954 422.633 595.9429 423.3117 587.4312 426.9354 579.4693 429.3218 570.3351 430.4928 567.3814 423.0327 564.4532 415.562 561.5297 408.0891 560.6897 405.9686 559.8498 403.848 558.9843 401.6632 557.7925 398.606 557.7925 398.606 556.5766 395.4871 555.8388 393.6099 555.101 391.7327 554.3409 389.7986 552.7243 384.8292 552.7243 384.8292 552.7243 377.9797 547.0466 383.3533 543.3871 389.0449 539.4904 395.8973 538.2008 398.149 536.9113 400.4007 535.5827 402.7206 534.2019 405.1515 532.8212 407.5824 531.3987 410.0869 528.455 415.2259 525.5083 420.363 522.5589 425.4984 521.7967 426.8266 521.0345 428.1548 520.2493 429.5232 511.4519 444.8263 502.4467 459.9958 493.4254 475.1575 492.6409 476.4768 491.8564 477.7961 491.0481 479.1554 486.6624 486.5301 482.2726 493.9022 477.8784 501.2714 485.0544 499.6729 491.3144 497.0376 497.9915 493.8957 500.2691 492.8319 502.5467 491.7681 504.8933 490.6721 507.3745 489.5079 509.8556 488.3437 512.412 487.1442 638.6707 428.5006 769.2165 372.5373 903.8482 338.3362 909.5679 336.823 915.2319 335.1661 920.9 333.4577 922.7369 332.9057 924.5738 332.3536 926.4663 331.7849 929.8791 330.7492 933.2873 329.697 936.6895 328.6243 944.6847 326.215 949.8348 325.2102 957.7727 327.7497 956.2563 328.4217 954.7399 329.0937 953.1776 329.786 913.3703 347.4646 873.8437 365.7345 834.4159 384.3041 809.2263 396.1644 783.9858 407.8951 758.6881 419.505 731.2655 432.094 703.9532 444.9131 676.7017 457.8952 652.4255 469.4556 628.0614 480.792 603.6305 491.996 576.3318 504.5168 549.1475 517.2726 522.0429 530.2393 498.428 541.5359 474.7943 552.7727 451.0494 563.7735 390.3494 591.8982 329.8054 620.3768 269.42 649.2206 267.7914 649.9985 266.1629 650.7763 264.485 651.5778 262.0527 652.7396 262.0527 652.7396 259.5712 653.9249 247.3234 659.7717 235.0629 665.5893 222.7969 671.3951 221.0197 672.2364 219.2425 673.0778 217.4115 673.9447 208.9081 677.9697 200.4033 681.9918 191.8969 686.01 188.854 687.4497 185.8112 688.8895 182.7685 690.3294 180.1282 691.577 177.4879 692.8245 174.7676 694.1098 169.849 696.4848 164.9928 699.0032 160.2041 701.6483 157.2716 703.0472 157.2716 703.0472 154.2799 704.4744 152.827 703.721 151.3741 702.9675 149.8772 702.1913 170.6242 686.1594 191.4508 670.2501 212.6157 654.8153 215.2614 652.8717 215.2614 652.8717 217.9605 650.8888 228.7779 643.0257 239.7868 635.5908 251.0275 628.3982 288.7091 604.1714 288.7091 604.1714 312.3837 566.2941 317.4483 555.2465 323.9256 544.996 330.1434 534.6169 334.2705 527.7118 338.3406 520.771 342.4093 513.8289 343.2353 512.4207 344.0613 511.0126 344.9123 509.5617 353.903 494.1985 362.6555 478.6929 371.388 463.1708 395.3703 420.5668 419.9305 378.3319 444.6597 336.1907 454.9259 318.693 465.1259 301.1609 475.0047 283.4239 476.4811 280.7867 477.9896 278.1683 479.5346 275.5737 482.4523 270.5305 482.4523 270.5305 485.1058 264.4134 491.7507 251.1542 496.2523 244.0379 511.1603 242.7041Z"/>
<path style="fill: rgb(206,34,40)" stroke-linecap="round" d="M858.7117 398.5281C859.4382 400.035 860.1646 401.5419 860.9131 403.0944 859.0657 404.5954 859.0657 404.5954 857.1811 406.1268 845.8534 415.42 834.8135 424.962 823.9029 434.7735 810.7249 446.5786 797.2012 457.7643 783.2789 468.6132 779.2277 471.7735 775.1918 474.9541 771.1565 478.1361 511.8386 682.007 511.8386 682.007 394.2269 706.7574 404.7049 686.1466 417.1341 666.8562 429.4485 647.3947 421.315 651.8263 413.2065 656.2935 405.139 660.8529 400.2129 663.6245 395.4239 666.1062 390.2627 668.3982 366.1424 680.0673 352.3709 712.3926 341.949 736.4017 326.0689 770.908 326.0689 770.908 311.2171 778.167 294.1145 782.6154 276.7277 781.2866 259.2738 780.381 253.6917 780.2829 248.1092 780.2082 242.5266 780.1558 229.4044 779.9767 216.3018 779.5644 203.1896 779.0347 188.2433 778.4442 173.2959 778.1582 158.3414 777.8954 127.6242 777.3489 96.9262 776.4276 66.2257 775.2528 69.5898 768.2745 74.8689 767.2623 81.6696 764.1133 83.0562 763.4657 84.4428 762.8182 85.8714 762.151 88.9039 760.7366 91.9393 759.329 94.9771 757.9271 101.5576 754.8902 108.1243 751.8216 114.692 748.7549 118.1667 747.1328 121.6422 745.5124 125.1183 743.8935 142.3594 735.8595 159.5323 727.6745 176.6979 719.4686 211.7 702.7391 246.7641 686.154 281.8611 669.6398 292.109 664.8176 302.3536 659.988 312.5963 655.1539 330.9972 646.47 349.4023 637.7959 367.8107 629.1292 369.5827 628.2949 371.3548 627.4606 373.1805 626.6009 416.0839 606.4034 459.0124 586.2726 502.093 566.4845 528.9453 554.15 555.6737 541.5724 582.3133 528.7496 598.5562 520.9368 614.8468 513.2347 631.1472 505.5521 632.65 504.8437 634.1528 504.1353 635.7012 503.4054 663.3385 490.3829 691.0249 477.4742 718.7146 464.5721 753.4131 448.4007 788.0253 432.038 822.604 415.5933 834.6276 409.8767 846.6657 404.1936 858.7117 398.5281Z"/>
<path style="fill: rgb(36,44,54)" stroke-linecap="round" d="M733.236 537.8018C739.6676 541.1371 740.017 545.4141 742.5315 552.3392 743.5166 555.0199 744.5016 557.7006 745.5165 560.4625 746.0457 561.9241 746.575 563.3856 747.1203 564.8915 750.0239 572.9061 752.98 580.9 755.9288 588.8969 756.8855 591.4973 756.8855 591.4973 757.8614 594.1502 765.2789 614.2708 772.947 634.2877 780.6096 654.3088 792.0904 684.3177 803.5573 714.3332 814.8235 744.4296 815.7291 746.8248 816.6347 749.22 817.5677 751.6877 818.7675 754.9113 818.7675 754.9113 819.9915 758.2 820.6756 760.0262 821.3597 761.8525 822.0644 763.7341 823.4913 768.403 823.4913 768.403 823.4913 775.2525 780.6311 775.2525 737.7708 775.2525 693.6117 775.2525 688.5266 760.1835 683.4415 745.1145 678.2022 729.5889 674.0656 718.2296 669.9221 706.8832 665.6855 695.5652 654.6261 666.0019 643.9623 636.3439 634.1752 606.2972 646.7932 596.7965 659.7064 587.9501 672.974 579.4698 691.2985 567.7436 708.9678 555.1285 726.6319 542.3682 728.8113 540.8613 730.9906 539.3544 733.236 537.8018Z"/>
<path style="fill: rgb(39,42,51)" stroke-linecap="round" d="M858.7124 398.5281C859.4389 400.035 860.1653 401.5419 860.9138 403.0944 859.0665 404.5954 859.0665 404.5954 857.1818 406.1268 845.8541 415.42 834.8142 424.962 823.9036 434.7735 810.7256 446.5786 797.2019 457.7643 783.2797 468.6132 779.2284 471.7735 775.1925 474.9541 771.1572 478.1361 518.7018 676.6119 518.7018 676.6119 394.2276 706.7574 401.6329 692.6151 409.3717 678.7759 417.7545 665.232 419.2932 662.603 419.2932 662.603 420.8631 659.921 429.6183 645.885 439.5086 639.0409 453.664 631.4124 457.6399 629.1505 461.6155 626.8882 465.5909 624.6253 469.8225 622.27 474.0562 619.9185 478.2916 617.5706 496.1614 607.6041 513.9095 597.4537 531.5368 587.0331 551.861 575.0282 572.3942 563.474 593.0177 552.0329 610.8904 542.0915 628.5662 531.8297 646.1876 521.4184 661.1581 512.5948 676.2473 504.0262 691.4098 495.5632 715.1149 482.3223 738.5721 468.6655 761.9702 454.8517 768.8491 450.8109 775.7491 446.8109 782.6541 442.8182 784.9751 441.4717 787.2961 440.1252 789.6875 438.7379 794.1475 436.1517 798.612 433.5738 803.0816 431.0054 805.0834 429.8414 807.0852 428.6774 809.1476 427.4781 810.912 426.4594 812.6763 425.4407 814.4941 424.3911 818.9147 421.4743 822.0168 418.3365 825.6922 414.5103 829.4731 412.2656 829.4731 412.2656 833.5603 410.3453 835.763 409.2968 835.763 409.2968 838.0103 408.2271 839.5299 407.5222 841.0494 406.8174 842.6151 406.0911 844.1602 405.3597 845.7053 404.6284 847.2972 403.8748 851.0963 402.0789 854.9036 400.3016 858.7124 398.5281Z"/>
<path style="fill: rgb(37,43,53)" stroke-linecap="round" d="M623.1683 247.8384C624.6212 247.8384 626.0741 247.8384 627.571 247.8384 628.5573 250.5281 629.5435 253.2178 630.5597 255.989 634.2959 266.1769 638.0341 276.3641 641.7728 286.551 643.3763 290.921 644.9794 295.2911 646.5818 299.6615 657.0087 328.0971 667.5267 356.4929 678.202 384.8292 672.6068 391.7228 666.6645 394.1667 658.6307 397.36 654.7399 398.9236 654.7399 398.9236 650.7706 400.5189 647.9906 401.6158 645.2105 402.7122 642.4301 403.8082 639.6163 404.9311 636.8032 406.0557 633.9907 407.1822 628.4753 409.3907 622.9576 411.5926 617.4381 413.7904 605.7687 418.4772 594.2017 423.4123 582.6411 428.3791 576.9399 430.4928 576.9399 430.4928 570.3359 430.4928 567.4244 423.1769 564.5436 415.8484 561.6681 408.5172 560.8466 406.4541 560.0251 404.3909 559.1787 402.2652 550.1786 379.223 550.1786 379.223 550.5237 371.1302 553.2886 365.7628 556.4731 360.9688 559.9171 356.042 563.6075 350.7596 566.8838 345.3908 570.1037 339.7899 571.1519 337.9707 572.2001 336.1514 573.28 334.2771 574.3516 332.4056 575.4231 330.5341 576.5272 328.6059 578.8403 324.5865 581.1534 320.5672 583.4666 316.5479 585.1602 313.5988 585.1602 313.5988 586.8879 310.5902 592.3335 301.1154 597.8064 291.6575 603.2949 282.2093 606.8993 275.998 610.4625 269.7684 613.9587 263.4907 615.1364 261.3863 616.314 259.282 617.5273 257.1138 618.5234 255.3038 619.5194 253.4938 620.5456 251.6289 621.4111 250.378 622.2766 249.1272 623.1683 247.8384Z"/>
<path style="fill: rgb(203,52,56)" stroke-linecap="round" d="M957.7742 327.7496C935.9808 337.5445 914.1875 347.3393 891.7337 357.431 891.0072 355.9241 890.2808 354.4172 889.5323 352.8646 890.2588 351.3577 890.9852 349.8508 891.7337 348.2982 885.9221 348.2982 880.1106 348.2982 874.1229 348.2982 885.6429 341.6477 898.6734 338.9634 911.3244 335.4581 915.9391 334.1737 920.5441 332.8554 925.1495 331.5356 928.0898 330.7145 931.0307 329.8954 933.9721 329.0785 936.6367 328.3304 939.3013 327.5823 942.0466 326.8115 948.9688 325.4664 948.9688 325.4664 957.7742 327.7496Z"/>
<path style="fill: rgb(189,52,56)" stroke-linecap="round" d="M431.6506 359.7141C432.377 361.221 433.1034 362.7279 433.8519 364.2804 428.3556 378.1758 419.6965 390.5455 411.8384 403.0945 410.3855 402.341 408.9326 401.5876 407.4357 400.8113 411.0533 394.3865 414.6784 387.9663 418.3049 381.547 419.3364 379.7149 420.3679 377.8827 421.4306 375.9951 422.4167 374.2513 423.4028 372.5074 424.4188 370.7108 425.3295 369.0967 426.2402 367.4825 427.1785 365.8194 429.4492 361.9972 429.4492 361.9972 431.6506 359.7141Z"/>
</svg>